<svg id="visual" viewBox="0 0 900 600" width="900" height="600" xmlns="http://www.w3.org/2000/svg" xmlns:xlink="http://www.w3.org/1999/xlink" version="1.1"><g><g transform="translate(338 434)"><path d="M87.9 36.7C69.9 81.8 -18.9 72 -45.3 22C-71.8 -28.1 -35.9 -118.3 8.5 -113.4C52.9 -108.5 105.8 -8.4 87.9 36.7Z" fill="none" stroke="#001122" stroke-width="20"></path></g><g transform="translate(839 273)"><path d="M66.7 32C56.3 56.4 -2.9 46.1 -22.1 16.5C-41.4 -13.1 -20.7 -62 8.9 -56.9C38.5 -51.7 77 7.5 66.7 32Z" fill="none" stroke="#001122" stroke-width="20"></path></g><g transform="translate(3 46)"><path d="M57.1 28.7C38.5 65.2 -36.6 64.8 -55.5 28.2C-74.4 -8.5 -37.2 -81.5 0.3 -81.3C37.9 -81.1 75.7 -7.8 57.1 28.7Z" stroke="#001122" fill="none" stroke-width="20"></path></g><g transform="translate(491 18)"><path d="M7.8 2.4C-10.3 35.9 -59.5 49.3 -66 22.6C-72.5 -4.2 -36.2 -71.1 -11.6 -77.8C13 -84.5 25.9 -31 7.8 2.4Z" stroke="#001122" fill="none" stroke-width="20"></path></g></g></svg>